<?xml version="1.0" encoding="utf-8"?>
<!-- Generator: Adobe Illustrator 17.0.0, SVG Export Plug-In . SVG Version: 6.00 Build 0)  -->
<!DOCTYPE svg PUBLIC "-//W3C//DTD SVG 1.1//EN" "http://www.w3.org/Graphics/SVG/1.1/DTD/svg11.dtd">
<svg version="1.1" id="Layer_1" xmlns="http://www.w3.org/2000/svg" xmlns:xlink="http://www.w3.org/1999/xlink" x="0px" y="0px"
	 width="1200px" height="760px" viewBox="0 0 1200 760" enable-background="new 0 0 1200 760" xml:space="preserve">
<rect x="304.463" y="621.81" fill="#F3B91A" stroke="#010101" stroke-width="6" width="598.383" height="131.224"/>
<rect x="276.724" y="416.149" fill="#F3B91A" stroke="#010101" stroke-width="6" width="647.892" height="230.501"/>
<rect x="276.724" y="367.37" fill="#F3B91A" stroke="#010101" stroke-width="6" width="647.892" height="49.467"/>
<rect x="62.733" y="105.158" fill="#F3B91A" stroke="#010101" stroke-width="6" width="71.33" height="525.584"/>
<rect x="134.063" y="105.158" fill="#F3B91A" stroke="#010101" stroke-width="6" width="71.33" height="525.584"/>
<rect x="205.393" y="105.158" fill="#F3B91A" stroke="#010101" stroke-width="6" width="71.33" height="525.584"/>
<rect x="85.189" y="147.067" fill="#010101" width="26.419" height="149.087"/>
<rect x="156.519" y="147.067" fill="#010101" width="26.419" height="149.087"/>
<rect x="227.849" y="147.067" fill="#010101" width="26.419" height="149.087"/>
<rect x="85.189" y="446.616" fill="#010101" width="26.419" height="149.087"/>
<rect x="156.519" y="446.616" fill="#010101" width="26.419" height="149.087"/>
<rect x="227.849" y="446.616" fill="#010101" width="26.419" height="149.087"/>
<rect x="7.254" y="691.888" fill="#F3B91A" stroke="#010101" stroke-width="6" width="334.196" height="61.146"/>
<rect x="341.45" y="691.888" fill="#F3B91A" stroke="#010101" stroke-width="6" width="43.591" height="61.146"/>
<rect x="41.598" y="630.742" fill="#F3B91A" stroke="#010101" stroke-width="6" width="266.828" height="61.146"/>
<rect x="276.724" y="314.361" fill="#F3B91A" stroke="#010101" stroke-width="6" width="51.516" height="52.902"/>
<rect x="353.998" y="316.078" fill="#F3B91A" stroke="#010101" stroke-width="6" width="51.516" height="51.184"/>
<rect x="431.273" y="316.078" fill="#F3B91A" stroke="#010101" stroke-width="6" width="51.516" height="51.184"/>
<rect x="328.24" y="472.895" fill="#010101" width="26.419" height="122.808"/>
<rect x="404.854" y="472.895" fill="#010101" width="26.419" height="122.808"/>
<rect x="34.993" y="5.43" fill="#F3B91A" stroke="#010101" stroke-width="6" width="47.554" height="32.978"/>
<rect x="34.993" y="38.408" fill="#F3B91A" stroke="#010101" stroke-width="6" width="269.47" height="32.741"/>
<rect x="256.91" y="5.43" fill="#F3B91A" stroke="#010101" stroke-width="6" width="47.554" height="32.978"/>
<rect x="181.617" y="5.43" fill="#F3B91A" stroke="#010101" stroke-width="6" width="47.554" height="32.978"/>
<rect x="110.286" y="5.43" fill="#F3B91A" stroke="#010101" stroke-width="6" width="47.554" height="32.978"/>
<polygon fill="#F3B91A" stroke="#010101" stroke-width="6" points="67.256,105.158 272.2,105.158 298.767,71.149 40.69,71.149 "/>
<rect x="479.285" y="274.169" fill="#F3B91A" stroke="#010101" stroke-width="6" width="239.432" height="372.375"/>
<line fill="none" stroke="#010101" stroke-width="6" x1="477.754" y1="443.438" x2="601.767" y2="341.671"/>
<line fill="none" stroke="#010101" stroke-width="6" x1="513.996" y1="487.434" x2="602.545" y2="416.532"/>
<line fill="none" stroke="#010101" stroke-width="6" x1="515.235" y1="484.403" x2="515.235" y2="646.544"/>
<rect x="431.273" y="147.067" fill="#F3B91A" stroke="#010101" stroke-width="6" width="39.628" height="39.054"/>
<rect x="431.273" y="186.121" fill="#F3B91A" stroke="#010101" stroke-width="6" width="338.918" height="35.489"/>
<rect x="529.682" y="147.067" fill="#F3B91A" stroke="#010101" stroke-width="6" width="39.628" height="39.054"/>
<g>
	<defs>
		<rect id="SVGID_1_" x="436.474" y="221.611" width="161.484" height="52.558"/>
	</defs>
	<clipPath id="SVGID_2_">
		<use xlink:href="#SVGID_1_"  overflow="visible"/>
	</clipPath>
	<polygon clip-path="url(#SVGID_2_)" fill="#F3B91A" stroke="#010101" stroke-width="6" points="633.395,275.167 463.966,275.167 
		442.003,221.611 655.358,221.611 	"/>
</g>
<line fill="none" stroke="#010101" stroke-width="6" x1="385.04" y1="753.034" x2="601.836" y2="753.034"/>
<line fill="none" stroke="#010101" stroke-width="6" x1="446.629" y1="682.27" x2="446.629" y2="707.003"/>
<line fill="none" stroke="#010101" stroke-width="6" x1="411.617" y1="707.003" x2="411.617" y2="730.706"/>
<line fill="none" stroke="#010101" stroke-width="6" x1="477.754" y1="652.899" x2="601.832" y2="652.899"/>
<line fill="none" stroke="#010101" stroke-width="6" x1="477.754" y1="643.624" x2="477.754" y2="682.27"/>
<rect x="451.087" y="500.892" fill="#010101" stroke="#010101" stroke-width="6" width="88.708" height="20.268"/>
<rect x="593.748" y="753.034" fill="#926E2A" stroke="#010101" stroke-width="6" width="8.089" height="0"/>
<rect x="1067.161" y="105.265" fill="#F3B91A" stroke="#010101" stroke-width="6" width="71.273" height="525.584"/>
<rect x="995.888" y="105.265" fill="#F3B91A" stroke="#010101" stroke-width="6" width="71.273" height="525.584"/>
<rect x="924.616" y="105.265" fill="#F3B91A" stroke="#010101" stroke-width="6" width="71.273" height="525.584"/>
<rect x="1089.599" y="147.174" fill="#010101" width="26.397" height="149.087"/>
<rect x="1018.326" y="147.174" fill="#010101" width="26.397" height="149.087"/>
<rect x="947.053" y="147.174" fill="#010101" width="26.397" height="149.087"/>
<rect x="1089.599" y="446.722" fill="#010101" width="26.397" height="149.087"/>
<rect x="1018.326" y="446.722" fill="#010101" width="26.397" height="149.087"/>
<rect x="947.053" y="446.722" fill="#010101" width="26.397" height="149.087"/>
<rect x="859.942" y="691.995" fill="#F3B91A" stroke="#010101" stroke-width="6" width="333.926" height="61.146"/>
<rect x="816.387" y="691.995" fill="#F3B91A" stroke="#010101" stroke-width="6" width="43.556" height="61.146"/>
<rect x="892.939" y="630.849" fill="#F3B91A" stroke="#010101" stroke-width="6" width="266.613" height="61.146"/>
<rect x="873.141" y="314.468" fill="#F3B91A" stroke="#010101" stroke-width="6" width="51.475" height="52.902"/>
<rect x="795.929" y="316.185" fill="#F3B91A" stroke="#010101" stroke-width="6" width="51.475" height="51.184"/>
<rect x="718.717" y="316.185" fill="#F3B91A" stroke="#010101" stroke-width="6" width="51.475" height="51.184"/>
<rect x="846.744" y="473.002" fill="#010101" width="26.397" height="122.808"/>
<rect x="770.191" y="473.002" fill="#010101" width="26.397" height="122.808"/>
<rect x="1118.636" y="5.537" fill="#F3B91A" stroke="#010101" stroke-width="6" width="47.515" height="32.978"/>
<rect x="896.898" y="38.515" fill="#F3B91A" stroke="#010101" stroke-width="6" width="269.253" height="32.741"/>
<rect x="896.898" y="5.537" fill="#F3B91A" stroke="#010101" stroke-width="6" width="47.515" height="32.978"/>
<rect x="972.131" y="5.537" fill="#F3B91A" stroke="#010101" stroke-width="6" width="47.515" height="32.978"/>
<rect x="1043.404" y="5.537" fill="#F3B91A" stroke="#010101" stroke-width="6" width="47.515" height="32.978"/>
<polygon fill="#F3B91A" stroke="#010101" stroke-width="6" points="1133.914,105.265 929.136,105.265 902.59,71.256 
	1160.459,71.256 "/>
<line fill="none" stroke="#010101" stroke-width="6" x1="719.667" y1="443.545" x2="597.422" y2="341.777"/>
<line fill="none" stroke="#010101" stroke-width="6" x1="687.535" y1="487.541" x2="598.784" y2="416.639"/>
<line fill="none" stroke="#010101" stroke-width="6" x1="686.297" y1="484.509" x2="686.297" y2="646.65"/>
<rect x="730.595" y="147.174" fill="#F3B91A" stroke="#010101" stroke-width="6" width="39.596" height="39.054"/>
<rect x="632.265" y="147.174" fill="#F3B91A" stroke="#010101" stroke-width="6" width="39.596" height="39.054"/>
<g>
	<defs>
		<rect id="SVGID_3_" x="594.738" y="221.717" width="170.256" height="52.558"/>
	</defs>
	<clipPath id="SVGID_4_">
		<use xlink:href="#SVGID_3_"  overflow="visible"/>
	</clipPath>
	<polygon clip-path="url(#SVGID_4_)" fill="#F3B91A" stroke="#010101" stroke-width="6" points="557.377,275.274 736.01,275.274 
		759.166,221.717 534.221,221.717 	"/>
</g>
<line fill="none" stroke="#010101" stroke-width="6" x1="816.387" y1="753.141" x2="599.766" y2="753.141"/>
<polyline fill="none" stroke="#010101" stroke-width="6" points="757.075,682.376 599.77,682.376 601.832,682.27 444.4,682.27 "/>
<polyline fill="none" stroke="#010101" stroke-width="6" points="792.217,707.056 599.77,707.056 601.832,707.056 409.23,707.056 
	"/>
<polyline fill="none" stroke="#010101" stroke-width="6" points="813.422,730.813 596.801,730.813 604.803,730.706 388.007,730.706 
	"/>
<line fill="none" stroke="#010101" stroke-width="6" x1="754.848" y1="682.376" x2="754.848" y2="707.11"/>
<line fill="none" stroke="#010101" stroke-width="6" x1="789.831" y1="707.11" x2="789.831" y2="730.813"/>
<line fill="none" stroke="#010101" stroke-width="6" x1="723.747" y1="653.005" x2="599.77" y2="653.005"/>
<line fill="none" stroke="#010101" stroke-width="6" x1="723.747" y1="643.73" x2="723.747" y2="682.376"/>
<rect x="661.757" y="500.998" fill="#010101" stroke="#010101" stroke-width="6" width="88.637" height="20.268"/>
<rect x="599.766" y="753.141" fill="#926E2A" stroke="#010101" stroke-width="6" width="8.082" height="0"/>
</svg>
