<?xml version="1.0" encoding="utf-8"?>
<!-- Generator: Adobe Illustrator 17.0.0, SVG Export Plug-In . SVG Version: 6.00 Build 0)  -->
<!DOCTYPE svg PUBLIC "-//W3C//DTD SVG 1.1//EN" "http://www.w3.org/Graphics/SVG/1.1/DTD/svg11.dtd">
<svg version="1.1" id="Layer_1" xmlns="http://www.w3.org/2000/svg" xmlns:xlink="http://www.w3.org/1999/xlink" x="0px" y="0px"
	 width="100px" height="100px" viewBox="0 0 100 100" enable-background="new 0 0 100 100" xml:space="preserve">
<path fill="#808285" d="M100.132,100H0.242c0,0-0.419-1.296,0-8.208c5.72-3.024,32.646-10.512,34.181-11.232l0.14-5.184l2.093-0.576
	c0,0,0.837-8.064,0.837-9.36c0,0-3.209-6.48-3.906-10.224c0,0-2.651,0-2.93-2.736c-0.419-2.88,0-4.752-0.698-6.912
	c-0.419-2.016,1.116-4.176,2.372-3.744c0,0-2.79-14.831,0-18.863c1.953-2.88,7.952-10.224,22.043-12.816
	c0,0,3.488-0.432,4.604,0.144c0.837,0.288,0.698,0.576-0.977,2.448c0,0,7.255,4.608,9.626,11.952c1.395,4.608,0.837,14.543,0,17.135
	c0,0,2.093-0.432,1.814,2.304c-0.419,4.464-0.558,12.672-3.627,11.088c0,0-0.14,9.216-2.79,11.088c0,0-0.837,7.2,0.419,7.488h1.814
	c0,0,0.698,5.904,2.093,7.488c0,0,29.856,7.92,32.785,11.376C100.272,96.4,100.132,100,100.132,100z"/>
</svg>
